<?xml version="1.0" standalone="no"?><!DOCTYPE svg PUBLIC "-//W3C//DTD SVG 1.1//EN" "http://www.w3.org/Graphics/SVG/1.1/DTD/svg11.dtd"><svg t="1760600369547" class="icon" viewBox="0 0 1024 1024" version="1.1" xmlns="http://www.w3.org/2000/svg" p-id="54234" xmlns:xlink="http://www.w3.org/1999/xlink" width="200" height="200"><path d="M898.47296 239.31904H125.52192C84.46976 239.31904 51.2 272.5888 51.2 313.64096v579.71712C51.2 934.41024 84.46976 967.68 125.52192 967.68h772.95104c41.05728 0 74.32704-33.26976 74.32704-74.32704V313.64096c0-41.05216-33.26976-74.32192-74.32704-74.32192z" fill="#8F6346" p-id="54235"></path><path d="M307.8144 506.88h-29.16352c-4.0192 0-7.28576 3.32288-7.28576 7.43424s3.26656 7.43424 7.28576 7.43424h29.16352c4.03968 0 7.30112-3.32288 7.30112-7.43424S311.85408 506.88 307.8144 506.88z m-145.82784 0h-29.17888c-4.02432 0-7.28576 3.32288-7.28576 7.43424s3.26656 7.43424 7.28576 7.43424h29.17888c4.0192 0 7.28576-3.32288 7.28576-7.43424S166.00576 506.88 161.98656 506.88z m72.91392 0h-29.16352c-4.03456 0-7.30112 3.32288-7.30112 7.43424s3.26656 7.43424 7.30112 7.43424h29.16352c4.0192 0 7.28576-3.32288 7.28576-7.43424S238.9248 506.88 234.90048 506.88z m0 401.34144h-29.16352c-4.03456 0-7.30112 3.32288-7.30112 7.43424 0 4.10624 3.26656 7.42912 7.30112 7.42912h29.16352c4.0192 0 7.28576-3.32288 7.28576-7.42912 0-4.11136-3.26144-7.43424-7.28576-7.43424z m291.69152 0h-29.184c-4.0192 0-7.28576 3.32288-7.28576 7.43424 0 4.10624 3.26656 7.42912 7.28576 7.42912h29.17888c4.0192 0 7.28576-3.32288 7.28576-7.42912 0-4.11136-3.26144-7.43424-7.28064-7.43424z m-72.9344 0H424.4992c-4.03968 0-7.28576 3.32288-7.28576 7.43424 0 4.10624 3.2512 7.42912 7.28576 7.42912h29.16352c4.03456 0 7.30112-3.32288 7.30112-7.42912a7.36768 7.36768 0 0 0-7.30624-7.43424z m-72.91392 0h-29.17888c-4.0192 0-7.28576 3.32288-7.28576 7.43424 0 4.10624 3.26656 7.42912 7.28576 7.42912h29.17888c4.0192 0 7.28576-3.32288 7.28576-7.42912 0.00512-4.11136-3.26656-7.43424-7.28576-7.43424zM453.6576 506.88H424.4992c-4.03968 0-7.28576 3.32288-7.28576 7.43424s3.2512 7.43424 7.28576 7.43424h29.16352c4.03456 0 7.30112-3.32288 7.30112-7.43424S457.69728 506.88 453.6576 506.88z m-72.91392 0h-29.17888c-4.0192 0-7.28576 3.32288-7.28576 7.43424s3.26656 7.43424 7.28576 7.43424h29.17888c4.0192 0 7.28576-3.32288 7.28576-7.43424S384.76288 506.88 380.74368 506.88zM307.8144 908.22144h-29.16352c-4.0192 0-7.28576 3.32288-7.28576 7.43424 0 4.10624 3.26656 7.42912 7.28576 7.42912h29.16352c4.03968 0 7.30112-3.32288 7.30112-7.42912 0-4.11136-3.26144-7.43424-7.30112-7.43424z m-204.59008-133.78048c-4.10624 0-7.43424 3.32288-7.43424 7.43424v29.73184a7.424 7.424 0 0 0 7.43424 7.42912 7.424 7.424 0 0 0 7.43424-7.42912v-29.73184a7.424 7.424 0 0 0-7.43424-7.43424z m0-74.32192c-4.10624 0-7.43424 3.32288-7.43424 7.42912V737.28a7.424 7.424 0 0 0 7.43424 7.42912A7.424 7.424 0 0 0 110.65856 737.28v-29.73184c0-4.10112-3.32288-7.42912-7.43424-7.42912z m0 148.64384c-4.10624 0-7.43424 3.32288-7.43424 7.42912v29.73184a7.424 7.424 0 0 0 7.43424 7.42912 7.424 7.424 0 0 0 7.43424-7.42912v-29.73184c0-4.10112-3.32288-7.42912-7.43424-7.42912z m0-222.96576c-4.10624 0-7.43424 3.32288-7.43424 7.43424v29.72672a7.424 7.424 0 0 0 7.43424 7.43424 7.424 7.424 0 0 0 7.43424-7.43424v-29.72672a7.424 7.424 0 0 0-7.43424-7.43424z m-7.43424-364.18048a7.42912 7.42912 0 1 0 14.86848 0v-20.80256l-14.86336 4.68992v16.11264z m7.43424 185.8048c-4.10624 0-7.43424 3.32288-7.43424 7.43424v29.72672a7.42912 7.42912 0 1 0 14.86848 0v-29.72672a7.424 7.424 0 0 0-7.43424-7.43424z m0-148.64384c-4.10624 0-7.43424 3.32288-7.43424 7.43424v29.72672a7.42912 7.42912 0 1 0 14.86848 0v-29.72672a7.424 7.424 0 0 0-7.43424-7.43424z m58.76224 609.44384h-29.17888c-4.02432 0-7.28576 3.32288-7.28576 7.43424 0 4.10624 3.26656 7.42912 7.28576 7.42912h29.17888c4.0192 0 7.28576-3.32288 7.28576-7.42912 0.00512-4.11136-3.26656-7.43424-7.28576-7.43424zM103.22432 373.09952c-4.10624 0-7.43424 3.32288-7.43424 7.43424v29.72672a7.42912 7.42912 0 1 0 14.86848 0v-29.72672a7.424 7.424 0 0 0-7.43424-7.43424z m-7.43424 215.53664a7.424 7.424 0 0 0 7.43424 7.42912 7.424 7.424 0 0 0 7.43424-7.42912v-22.29248H95.7952v22.29248z m824.9856 111.48288a7.424 7.424 0 0 0-7.43424 7.42912V737.28a7.424 7.424 0 0 0 7.43424 7.42912A7.424 7.424 0 0 0 928.2048 737.28v-29.73184a7.424 7.424 0 0 0-7.42912-7.42912z m0-74.32192a7.424 7.424 0 0 0-7.43424 7.43424v29.72672a7.424 7.424 0 1 0 14.86336 0v-29.72672a7.424 7.424 0 0 0-7.42912-7.43424z m-7.43424-37.16096a7.424 7.424 0 0 0 7.43424 7.42912 7.424 7.424 0 0 0 7.42912-7.42912v-22.29248h-14.86336v22.29248z m7.43424 260.12672a7.424 7.424 0 0 0-7.43424 7.42912v29.73184a7.424 7.424 0 0 0 7.43424 7.42912 7.424 7.424 0 0 0 7.42912-7.42912v-29.73184a7.424 7.424 0 0 0-7.42912-7.42912z m0-74.32192a7.424 7.424 0 0 0-7.43424 7.43424v29.73184a7.424 7.424 0 1 0 14.86336 0v-29.73184a7.424 7.424 0 0 0-7.42912-7.43424z m0-327.01952a7.424 7.424 0 0 0-7.43424 7.43424v29.72672a7.42912 7.42912 0 1 0 14.86336 0v-29.72672a7.424 7.424 0 0 0-7.42912-7.43424z m0-148.64384a7.424 7.424 0 0 0-7.43424 7.43424v29.72672a7.42912 7.42912 0 1 0 14.86336 0v-29.72672a7.424 7.424 0 0 0-7.42912-7.43424zM526.592 506.88h-29.184c-4.0192 0-7.28576 3.32288-7.28576 7.43424s3.26656 7.43424 7.28576 7.43424h29.17888c4.0192 0 7.28576-3.32288 7.28576-7.43424S530.6112 506.88 526.592 506.88z m364.60032 0h-29.17376c-4.02432 0-7.29088 3.32288-7.29088 7.43424s3.26656 7.43424 7.29088 7.43424h29.17376c4.0192 0 7.28576-3.32288 7.28576-7.43424S895.21152 506.88 891.19232 506.88z m29.58336-133.78048a7.424 7.424 0 0 0-7.43424 7.43424v29.72672a7.42912 7.42912 0 1 0 14.86336 0v-29.72672a7.424 7.424 0 0 0-7.42912-7.43424z m-7.43424-132.28544v20.80256a7.42912 7.42912 0 1 0 14.86336 0V245.504l-14.86336-4.68992zM599.50592 506.88h-29.16352c-4.03456 0-7.30112 3.32288-7.30112 7.43424s3.26656 7.43424 7.30112 7.43424h29.16352c4.03456 0 7.28576-3.32288 7.28576-7.43424S603.54048 506.88 599.50592 506.88z m72.91392 0h-29.16352c-4.0192 0-7.28576 3.32288-7.28576 7.43424s3.26656 7.43424 7.28576 7.43424h29.16352c4.03456 0 7.30112-3.32288 7.30112-7.43424S676.4544 506.88 672.41984 506.88z m0 401.34144h-29.16352c-4.0192 0-7.28576 3.32288-7.28576 7.43424 0 4.10624 3.26656 7.42912 7.28576 7.42912h29.16352c4.03456 0 7.30112-3.32288 7.30112-7.42912 0-4.11136-3.26656-7.43424-7.30112-7.43424z m-72.91392 0h-29.16352c-4.03456 0-7.30112 3.32288-7.30112 7.43424 0 4.10624 3.26656 7.42912 7.30112 7.42912h29.16352c4.03456 0 7.28576-3.32288 7.28576-7.42912 0-4.11136-3.2512-7.43424-7.28576-7.43424z m218.752 0h-29.1584c-4.03456 0-7.29088 3.32288-7.29088 7.43424 0 4.10624 3.25632 7.42912 7.29088 7.42912h29.1584c4.03456 0 7.30624-3.32288 7.30624-7.42912 0-4.11136-3.27168-7.43424-7.30624-7.43424z m-72.91392 0h-29.17376c-4.0192 0-7.29088 3.32288-7.29088 7.43424 0 4.10624 3.27168 7.42912 7.29088 7.42912h29.17376c4.02432 0 7.29088-3.32288 7.29088-7.42912 0-4.11136-3.26656-7.43424-7.29088-7.43424z m145.84832 0h-29.17376c-4.02432 0-7.29088 3.32288-7.29088 7.43424 0 4.10624 3.26656 7.42912 7.29088 7.42912h29.17376c4.0192 0 7.28576-3.32288 7.28576-7.42912-0.00512-4.11136-3.26656-7.43424-7.28576-7.43424zM818.25792 506.88h-29.1584c-4.03456 0-7.29088 3.32288-7.29088 7.43424s3.25632 7.43424 7.29088 7.43424h29.1584c4.03456 0 7.30624-3.32288 7.30624-7.43424S822.29248 506.88 818.25792 506.88z m-72.91392 0h-29.17376c-4.0192 0-7.29088 3.32288-7.29088 7.43424s3.27168 7.43424 7.29088 7.43424h29.17376c4.02432 0 7.29088-3.32288 7.29088-7.43424S749.36832 506.88 745.344 506.88z" fill="#724E36" p-id="54236"></path><path d="M898.47296 566.33856H125.52192c-41.05216 0-74.32192-33.27488-74.32192-74.32704v59.45856c0 41.05216 33.26976 74.32192 74.32192 74.32192h772.95104c41.05728 0 74.32704-33.26976 74.32704-74.32192V492.01664c0 41.04704-33.26976 74.32192-74.32704 74.32192z" fill="" p-id="54237"></path><path d="M675.51232 46.08H348.48768C291.0208 46.08 244.43904 92.66176 244.43904 150.13376v89.18528h89.18528v-44.59008c0-32.83456 26.624-59.45856 59.45856-59.45856h237.82912c32.83456 0 59.45856 26.624 59.45856 59.45856v44.59008h89.18528V150.13376C779.56096 92.66176 732.9792 46.08 675.51232 46.08z" fill="#F6E37B" p-id="54238"></path><path d="M289.03424 551.4752a44.58496 44.58496 0 0 0-44.5952 44.59008v89.1904a44.58496 44.58496 0 0 0 44.5952 44.5952 44.58496 44.58496 0 0 0 44.59008-44.5952v-89.1904a44.58496 44.58496 0 0 0-44.59008-44.59008z m445.93664 0a44.58496 44.58496 0 0 0-44.5952 44.59008v89.1904a44.58496 44.58496 0 0 0 44.5952 44.5952 44.58496 44.58496 0 0 0 44.59008-44.5952v-89.1904a44.58496 44.58496 0 0 0-44.59008-44.59008z" fill="" p-id="54239"></path><path d="M289.03424 506.88a44.58496 44.58496 0 0 0-44.5952 44.5952v89.18528a44.58496 44.58496 0 0 0 44.5952 44.5952 44.58496 44.58496 0 0 0 44.59008-44.5952V551.4752A44.58496 44.58496 0 0 0 289.03424 506.88z m445.93664 0a44.58496 44.58496 0 0 0-44.5952 44.5952v89.18528a44.58496 44.58496 0 0 0 44.5952 44.5952 44.58496 44.58496 0 0 0 44.59008-44.5952V551.4752a44.58496 44.58496 0 0 0-44.59008-44.5952z" fill="#F6E37B" p-id="54240"></path></svg>