<?xml version="1.0" standalone="no"?><!DOCTYPE svg PUBLIC "-//W3C//DTD SVG 1.1//EN" "http://www.w3.org/Graphics/SVG/1.1/DTD/svg11.dtd"><svg t="1760605878937" class="icon" viewBox="0 0 1024 1024" version="1.1" xmlns="http://www.w3.org/2000/svg" p-id="58426" xmlns:xlink="http://www.w3.org/1999/xlink" width="200" height="200"><path d="M116.622222 529.066667h-19.911111c-17.066667 0-31.288889-14.222222-31.288889-31.288889s14.222222-31.288889 31.288889-31.288889h19.911111c17.066667 0 31.288889 14.222222 31.288889 31.288889s-14.222222 31.288889-31.288889 31.288889z m-76.8 184.888889c17.066667 0 31.288889 14.222222 31.288889 31.288888s-14.222222 31.288889-31.288889 31.288889h-8.533333c-17.066667 0-31.288889-14.222222-31.288889-31.288889s14.222222-31.288889 31.288889-31.288888h8.533333z m605.866667-176.355556c71.111111 11.377778 122.311111 73.955556 122.311111 147.911111 0 116.622222-93.866667 210.488889-210.488889 210.488889H241.777778c-17.066667 0-31.288889-14.222222-31.288889-31.288889s14.222222-31.288889 31.288889-31.288889h31.288889c17.066667 0 31.288889-14.222222 31.288889-31.288889s-14.222222-31.288889-31.288889-31.288889H128c-17.066667 0-31.288889-14.222222-31.288889-31.288888s14.222222-28.444444 31.288889-28.444445h122.311111c17.066667 0 31.288889-14.222222 31.288889-31.288889s-14.222222-31.288889-31.288889-31.288889H204.8c-17.066667 0-31.288889-14.222222-31.288889-31.288889s14.222222-31.288889 31.288889-31.288888h85.333333c17.066667 0 31.288889-14.222222 31.288889-31.288889s-14.222222-31.288889-31.288889-31.288889H199.111111c-17.066667 0-31.288889-14.222222-31.288889-31.288889s14.222222-31.288889 31.288889-31.288889H250.311111c17.066667 0 31.288889-14.222222 31.288889-31.288889S267.377778 398.222222 250.311111 398.222222H147.911111c-17.066667 0-31.288889-14.222222-31.288889-31.288889s14.222222-31.288889 31.288889-31.288889H270.222222c17.066667 0 31.288889-14.222222 31.288889-31.288888s-14.222222-31.288889-31.288889-31.288889H236.088889c-17.066667 0-31.288889-14.222222-31.288889-31.288889s14.222222-31.288889 31.288889-31.288889h347.022222c88.177778 0 162.133333 73.955556 162.133333 164.977778-2.844444 71.111111-42.666667 130.844444-99.555555 162.133333z m-56.888889-128v-19.911111c0-28.444444-22.755556-51.2-51.2-51.2h-56.888889l-31.288889 125.155555h88.177778c28.444444-2.844444 51.2-25.6 51.2-54.044444z m0 290.133333v-19.911111c0-28.444444-22.755556-51.2-51.2-51.2h-88.177778l-31.288889 125.155556h116.622223c31.288889-2.844444 54.044444-25.6 54.044444-54.044445zM989.866667 210.488889c19.911111 0 34.133333 17.066667 34.133333 34.133333 0 19.911111-17.066667 34.133333-34.133333 34.133334h-48.355556v45.511111c0 19.911111-17.066667 34.133333-34.133333 34.133333-19.911111 0-34.133333-17.066667-34.133334-34.133333V281.6H824.888889c-19.911111 0-34.133333-17.066667-34.133333-34.133333 0-19.911111 17.066667-34.133333 34.133333-34.133334h45.511111V162.133333c0-19.911111 17.066667-34.133333 34.133333-34.133333 19.911111 0 34.133333 17.066667 34.133334 34.133333v48.355556h51.2z" fill="#F8601E" p-id="58427"></path></svg>