<?xml version="1.0" standalone="no"?><!DOCTYPE svg PUBLIC "-//W3C//DTD SVG 1.1//EN" "http://www.w3.org/Graphics/SVG/1.1/DTD/svg11.dtd"><svg t="1760600272053" class="icon" viewBox="0 0 1024 1024" version="1.1" xmlns="http://www.w3.org/2000/svg" p-id="42603" xmlns:xlink="http://www.w3.org/1999/xlink" width="200" height="200"><path d="M623.480755 881.509434H159.975849c-68.009057 0-123.073208-55.064151-123.073207-123.073208v-0.193207c0-68.009057 55.064151-123.073208 123.073207-123.073208h463.504906c-68.009057 0-123.073208 55.064151-123.073208 123.073208v0.193207c0 68.009057 55.064151 123.073208 123.073208 123.073208z" fill="#F05543" p-id="42604"></path><path d="M181.615094 722.924679H161.792a19.320755 19.320755 0 1 1 0-38.641509h19.861736a19.320755 19.320755 0 1 1 0 38.641509zM348.68166 722.924679h-76.703396a19.320755 19.320755 0 1 1 0-38.641509h76.703396a19.320755 19.320755 0 1 1 0 38.641509z" fill="#FFFFFF" opacity=".3" p-id="42605"></path><path d="M623.480755 881.509434H159.975849c-68.009057 0-123.073208-55.064151-123.073207-123.073208v-0.193207c0-37.095849 16.229434-70.13434 42.119245-92.739623-5.603019 13.910943-8.69434 29.17434-8.69434 45.017359v0.193207c0 68.009057 55.064151 123.073208 123.073208 123.073208h333.089811a121.35366 121.35366 0 0 0 96.990189 47.722264z" fill="#E24B40" p-id="42606"></path><path d="M539.435472 766.589585c4.096 43.954717 43.471698 76.27834 87.619622 76.27834H967.776604a19.320755 19.320755 0 0 1 0 38.641509H623.480755a123.073208 123.073208 0 0 1-123.073208-123.073208v-0.193207a123.073208 123.073208 0 0 1 123.073208-123.073208h344.295849a19.320755 19.320755 0 0 1 0 38.64151H623.480755a84.586264 84.586264 0 0 0-84.045283 92.778264z" fill="#FC6559" p-id="42607"></path><path d="M952.629132 673.811321v169.056604H623.480755a84.528302 84.528302 0 0 1 0-169.056604z" fill="#E4E3FF" p-id="42608"></path><path d="M952.706415 673.811321v24.923773H643.960755c-46.563019 0-84.431698 37.868679-84.431698 84.624906 0 14.683774 3.670943 28.401509 10.24 40.18717a84.566943 84.566943 0 0 1 53.711698-149.735849z" fill="#D0D0F7" p-id="42609"></path><path d="M888.600151 772.830189H656.809057a14.490566 14.490566 0 0 1 0-28.981132h231.791094a14.490566 14.490566 0 0 1 0 28.981132z" fill="#D0D0F7" p-id="42610"></path><path d="M453.651321 635.169811h357.240754c68.009057 0 123.073208-55.064151 123.073208-123.073207v-0.193208c0-68.009057-55.064151-123.073208-123.073208-123.073207H453.651321c68.009057 0 123.073208 55.064151 123.073207 123.073207v0.193208c0 68.009057-55.064151 123.073208-123.073207 123.073207z" fill="#7979F7" p-id="42611"></path><path d="M453.651321 635.169811h357.240754c68.009057 0 123.073208-55.064151 123.073208-123.073207v-0.193208c0-37.095849-16.229434-70.13434-42.119245-92.739622 5.603019 13.910943 8.69434 29.17434 8.694339 45.017358v0.193208c0 68.009057-55.064151 123.073208-123.073207 123.073207H550.641509a121.35366 121.35366 0 0 1-96.990188 47.722264z" fill="#5E5EEF" p-id="42612"></path><path d="M537.696604 520.249962c-4.096 43.954717-43.471698 76.27834-87.619623 76.27834H109.355472a19.320755 19.320755 0 0 0 0 38.641509h344.295849a123.073208 123.073208 0 0 0 123.073207-123.073207v-0.193208a123.073208 123.073208 0 0 0-123.073207-123.073207H109.355472a19.320755 19.320755 0 0 0 0 38.641509h344.295849a84.586264 84.586264 0 0 1 84.045283 92.778264z" fill="#A2A2F9" p-id="42613"></path><path d="M124.502943 427.471698v169.056604H453.651321a84.528302 84.528302 0 0 0 0-169.056604z" fill="#E4E3FF" p-id="42614"></path><path d="M124.42566 427.471698v24.923774h308.745661c46.563019 0 84.431698 37.868679 84.431698 84.624905 0 14.683774-3.670943 28.401509-10.24 40.18717a84.566943 84.566943 0 0 0-53.711698-149.735849z" fill="#D0D0F7" p-id="42615"></path><path d="M420.303698 526.490566H188.531925a14.490566 14.490566 0 0 1 0-28.981132h231.771773a14.490566 14.490566 0 0 1 0 28.981132z" fill="#D0D0F7" p-id="42616"></path><path d="M747.790491 476.585057h67.023698a19.320755 19.320755 0 1 0 0-38.64151h-67.043019a19.320755 19.320755 0 1 0 0 38.64151z" fill="#FFFFFF" opacity=".3" p-id="42617"></path><path d="M544.555472 388.830189h-299.278491c-68.009057 0-123.073208-55.064151-123.073207-123.073208v-0.193207c0-68.009057 55.064151-123.073208 123.073207-123.073208h299.278491c-68.009057 0-123.073208 55.064151-123.073208 123.073208v0.193207c0 68.009057 55.064151 123.073208 123.073208 123.073208z" fill="#F9B938" p-id="42618"></path><path d="M544.555472 388.830189h-299.278491c-68.009057 0-123.073208-55.064151-123.073207-123.073208v-0.193207c0-37.095849 16.229434-70.13434 42.119245-92.739623-5.603019 13.910943-8.69434 29.17434-8.69434 45.017358v0.193208c0 68.009057 55.064151 123.073208 123.073208 123.073208h168.863396a121.35366 121.35366 0 0 0 96.990189 47.722264z" fill="#E5A320" p-id="42619"></path><path d="M457.322264 273.91034c4.096 43.954717 43.471698 76.27834 87.619623 76.278339H885.663396a19.320755 19.320755 0 0 1 0 38.64151H541.367547a123.073208 123.073208 0 0 1-123.073207-123.073208v-0.193207a123.073208 123.073208 0 0 1 123.073207-123.073208h344.295849a19.320755 19.320755 0 0 1 0 38.641509H541.367547a84.586264 84.586264 0 0 0-84.045283 92.778265z" fill="#ECB021" p-id="42620"></path><path d="M870.515925 181.132075v169.056604H541.367547a84.528302 84.528302 0 0 1 0-169.056604z" fill="#E4E3FF" p-id="42621"></path><path d="M870.593208 181.132075v24.923774H561.847547c-46.563019 0-84.431698 37.868679-84.431698 84.624906 0 14.683774 3.670943 28.401509 10.24 40.18717a84.566943 84.566943 0 0 1 53.711698-149.73585z" fill="#D0D0F7" p-id="42622"></path><path d="M806.486943 280.150943H574.695849a14.490566 14.490566 0 0 1 0-28.981132h231.791094a14.490566 14.490566 0 0 1 0 28.981132z" fill="#D0D0F7" p-id="42623"></path><path d="M285.869887 230.245434h-47.702944a19.320755 19.320755 0 1 1 0-38.641509h47.722265a19.320755 19.320755 0 1 1 0 38.641509z" fill="#FFFFFF" opacity=".3" p-id="42624"></path></svg>