<?xml version="1.0" standalone="no"?><!DOCTYPE svg PUBLIC "-//W3C//DTD SVG 1.1//EN" "http://www.w3.org/Graphics/SVG/1.1/DTD/svg11.dtd"><svg t="1760600091749" class="icon" viewBox="0 0 1024 1024" version="1.1" xmlns="http://www.w3.org/2000/svg" p-id="18423" xmlns:xlink="http://www.w3.org/1999/xlink" width="200" height="200"><path d="M765.304 337.348c-74.56 0-141.712 31.562-188.932 82.03-25.28-29.124-62.592-47.544-104.184-47.544-76.202 0-137.964 61.764-137.964 137.95 0 1.156 0.032 2.296 0.046 3.438-78.716 15.968-137.98 85.56-137.98 168.994 0 95.214 77.202 172.434 172.432 172.434h396.582c142.87 0 258.68-115.78 258.68-258.648 0-142.86-115.81-258.654-258.68-258.654z" fill="#AAB2BC" p-id="18424"></path><path d="M925.642 393.02c34.844 44.076 55.656 99.762 55.656 160.324 0 142.838-115.808 258.646-258.65 258.646H326.052c-36.716 0-70.748-11.5-98.714-31.062 31.17 44.562 82.874 73.718 141.384 73.718h396.582c142.87 0 258.68-115.78 258.68-258.648 0-82.294-38.436-155.606-98.342-202.978z" fill="#949DA8" p-id="18425"></path><path d="M569.06 169.354c-74.576 0-141.744 31.546-188.962 82.03-25.28-29.126-62.59-47.544-104.2-47.544-76.186 0-137.95 61.764-137.95 137.948 0 1.14 0.016 2.296 0.046 3.438-78.73 15.968-137.98 85.56-137.98 168.996 0 95.216 77.202 172.432 172.434 172.432H569.06c142.84 0 258.62-115.808 258.62-258.648 0-142.858-115.78-258.652-258.62-258.652z" fill="#D7DCE2" p-id="18426"></path><path d="M729.368 225.024c34.844 44.062 55.688 99.762 55.688 160.308 0 142.856-115.808 258.664-258.68 258.664H129.778c-36.716 0-70.746-11.5-98.714-31.06 31.172 44.558 82.874 73.714 141.386 73.714H569.06c142.84 0 258.62-115.808 258.62-258.648 0-82.294-38.438-155.604-98.312-202.978z" fill="#CCD1D9" p-id="18427"></path></svg>