<?xml version="1.0" standalone="no"?><!DOCTYPE svg PUBLIC "-//W3C//DTD SVG 1.1//EN" "http://www.w3.org/Graphics/SVG/1.1/DTD/svg11.dtd"><svg t="1760600196801" class="icon" viewBox="0 0 1024 1024" version="1.1" xmlns="http://www.w3.org/2000/svg" p-id="34513" xmlns:xlink="http://www.w3.org/1999/xlink" width="200" height="200"><path d="M779.776 793.472a8.048 8.048 0 0 1-5.664-2.336l-33.936-33.952a72.16 72.16 0 0 0-61.088-20.352 53.472 53.472 0 0 1-58.976-38.752l-4-14.672a24 24 0 0 1 6.176-23.28l42.336-42.336a23.872 23.872 0 0 1 26.416-5.104l8.944 3.84a127.44 127.44 0 0 1 75.84 96.608l11.84 71.04a8 8 0 0 1-7.888 9.296z m-90.656-73.376c23.168 0 45.808 9.216 62.368 25.76l16.288 16.288-7.728-46.416a111.568 111.568 0 0 0-66.352-84.528l-8.928-3.824a7.984 7.984 0 0 0-8.816 1.696L633.6 671.424a8 8 0 0 0-2.048 7.76l4 14.672a37.392 37.392 0 0 0 41.28 27.12c4.096-0.592 8.192-0.88 12.288-0.88zM237.44 794.56a7.968 7.968 0 0 1-7.36-11.136l67.888-158.384a7.952 7.952 0 0 1 13.008-2.496l90.512 90.512a8.032 8.032 0 0 1-2.496 13.008l-158.4 67.888a9.04 9.04 0 0 1-3.152 0.608z m70.576-152.384l-55.344 129.136 129.152-55.344-73.808-73.792z" fill="#263238" p-id="34514"></path><path d="M237.44 794.544a8 8 0 0 1-7.36-11.152l30.624-71.44a7.952 7.952 0 0 1 13.008-2.496l40.832 40.832a8 8 0 0 1-11.312 11.312l-32.48-32.464-25.952 60.56a8 8 0 0 1-7.36 4.848z" fill="#263238" p-id="34515"></path><path d="M774.848 339.664a40.016 40.016 0 0 0 0-56.576l-33.936-33.936a40.016 40.016 0 0 0-56.576 0L305.328 628.16l90.512 90.512 379.008-379.008z" fill="#FFD740" p-id="34516"></path><path d="M395.84 726.672a8.032 8.032 0 0 1-5.664-2.336l-90.512-90.512a8 8 0 0 1 0-11.312l379.008-379.008a48.048 48.048 0 0 1 67.888 0l33.936 33.952a48.08 48.08 0 0 1 0 67.888L401.488 724.336a7.968 7.968 0 0 1-5.648 2.336z m-79.2-98.512l79.2 79.2 373.344-373.344c12.48-12.48 12.48-32.784 0-45.264l-33.936-33.952a32.064 32.064 0 0 0-45.264 0L316.64 628.16z m458.208-288.496h0.16-0.16z" fill="#263238" p-id="34517"></path><path d="M746.56 367.936l-67.872 67.888-90.512-90.512 67.872-67.888z" fill="#FF5252" p-id="34518"></path><path d="M678.672 443.824a8.032 8.032 0 0 1-5.664-2.336l-90.512-90.512a8 8 0 0 1 0-11.328l67.888-67.888a8 8 0 0 1 11.312 0l90.512 90.512a8 8 0 0 1 0 11.328l-67.888 67.888a7.968 7.968 0 0 1-5.648 2.336z m-79.2-98.496l79.2 79.2 56.576-56.576-79.2-79.2-56.576 56.576z" fill="#263238" p-id="34519"></path><path d="M490.992 397.232l-161.632-148.192a40 40 0 0 0-55.456 1.344l-18.112 18.288a40 40 0 0 0-1.056 55.168l148.112 161.536" fill="#40C4FF" p-id="34520"></path><path d="M402.864 493.376a8.032 8.032 0 0 1-5.904-2.592l-148.112-161.536a47.968 47.968 0 0 1 1.264-66.208l18.112-18.288a47.856 47.856 0 0 1 66.544-1.616l161.648 148.192a8 8 0 0 1-10.816 11.808l-161.648-148.192a31.888 31.888 0 0 0-44.352 1.072l-18.112 18.288a31.968 31.968 0 0 0-0.848 44.144l148.112 161.536a8 8 0 0 1-5.888 13.392z" fill="#263238" p-id="34521"></path><path d="M553.488 606.256l50.928 37.792 45.248-45.264-37.776-50.912" fill="#40C4FF" p-id="34522"></path><path d="M604.416 652.048a7.904 7.904 0 0 1-4.768-1.584l-50.928-37.776a8 8 0 0 1 9.52-12.848l45.392 33.664 35.488-35.488-33.664-45.376a7.984 7.984 0 1 1 12.848-9.52l37.776 50.928a8 8 0 0 1-0.768 10.416l-45.264 45.264a8 8 0 0 1-5.632 2.32zM168 176h-80a8 8 0 0 1-8-8v-80a8 8 0 0 1 8-8h80a8 8 0 0 1 8 8v80a8 8 0 0 1-8 8zM96 160h64V96H96v64zM936 176h-80a8 8 0 0 1-8-8v-80a8 8 0 0 1 8-8h80a8 8 0 0 1 8 8v80a8 8 0 0 1-8 8zM864 160h64V96h-64v64zM168 944h-80a8 8 0 0 1-8-8v-80a8 8 0 0 1 8-8h80a8 8 0 0 1 8 8v80a8 8 0 0 1-8 8zM96 928h64v-64H96v64zM936 944h-80a8 8 0 0 1-8-8v-80a8 8 0 0 1 8-8h80a8 8 0 0 1 8 8v80a8 8 0 0 1-8 8zM864 928h64v-64h-64v64z" fill="#263238" p-id="34523"></path><path d="M856 904h-688a8 8 0 0 1-8-8v-32H128a8 8 0 0 1-8-8v-688A8 8 0 0 1 128 160h32V128a8 8 0 0 1 8-8h688a8 8 0 0 1 8 8v32h32a8 8 0 0 1 8 8v688a8 8 0 0 1-8 8h-32v32a8 8 0 0 1-8 8z m-680-16h672v-32a8 8 0 0 1 8-8h32V176h-32a8 8 0 0 1-8-8v-32H176v32a8 8 0 0 1-8 8h-32v672h32a8 8 0 0 1 8 8v32z" fill="#263238" p-id="34524"></path><path d="M352 968h-32a8 8 0 0 1 0-16h32a8 8 0 0 1 0 16z" fill="#263238" p-id="34525"></path><path d="M704 968H384a8 8 0 0 1 0-16h320a8 8 0 0 1 0 16z" fill="#263238" p-id="34526"></path><path d="M704 72h-32a8 8 0 0 1 0-16h32a8 8 0 0 1 0 16z" fill="#263238" p-id="34527"></path><path d="M640 72H320a8 8 0 0 1 0-16h320a8 8 0 0 1 0 16z" fill="#263238" p-id="34528"></path></svg>