<?xml version="1.0" standalone="no"?><!DOCTYPE svg PUBLIC "-//W3C//DTD SVG 1.1//EN" "http://www.w3.org/Graphics/SVG/1.1/DTD/svg11.dtd"><svg t="1760600212690" class="icon" viewBox="0 0 1024 1024" version="1.1" xmlns="http://www.w3.org/2000/svg" p-id="36562" xmlns:xlink="http://www.w3.org/1999/xlink" width="200" height="200"><path d="M818.88 383.08c-11.27-11.62-23.08-22.69-35.32-33.25-0.16-0.15-0.27-0.28-0.44-0.43-41.43-36.8-69.48-54.72-67.21-77.08 1.67-13.44 9.82-25.29 22.02-31.48 26.46-13.37 42.21-35.42 42.21-59.04 0-39.87-43.02-72.32-95.85-72.32-11.7 0-22.5 1.85-32.27 5.63a54.24 54.24 0 0 0-10.03 4.23 49.111 49.111 0 0 1-22.72 6.03c-14.76 0-29.61-6.7-38.84-17.64-6.13-8.8-13.39-16.76-21.6-23.67-14.8-12.74-30.92-20.16-47.79-22.05-14.53 1.94-30.6 9.32-45.45 21.96-7.09 5.88-13.44 12.6-18.9 20.02-12.06 14.58-26.91 21.38-41.58 21.38a44.19 44.19 0 0 1-19.31-4.32c-3.79-2.2-7.78-4.02-11.93-5.45a94.362 94.362 0 0 0-33.93-6.25c-52.74 0-95.81 32.44-95.81 72.27 0 23.67 15.75 45.72 42.17 59.09 9.43 4.83 16.5 13.13 19.88 23.03 0.54 1.35 0.92 2.72 1.15 4.12 0.02 0.09 0.05 0.18 0.07 0.28 3.14 20.11-23.36 45.19-52.51 69.67-4.63 3.76-9.25 7.51-13.75 11.41-0.35 0.29-0.7 0.58-1.05 0.86-0.53 0.44-0.89 0.86-1.34 1.29-11.52 10.1-22.7 20.61-33.36 31.64-70.56 72.2-106.33 149.02-106.33 228.17 0 58.14 10.67 110.61 31.82 155.88a298.03 298.03 0 0 0 85.28 107.5c36.04 28.58 79.47 50.49 129.19 65.25C394.75 954.49 449.29 962 507.48 962h9c58.09 0 112.68-7.51 162.18-22.18 49.77-14.76 93.24-36.68 129.15-65.25a298.243 298.243 0 0 0 85.36-107.5c21.1-45.27 31.77-97.74 31.77-155.88 0.23-79.08-35.46-155.8-106.06-228.11z" fill="#FF554D" p-id="36563"></path><path d="M513 567.48l57.01-92.98h58.96l-63 91.98h31.98v23.98h-44.97l-11.99 24.98h56.96v23.98h-59.96V744.5h-52.96V639.43h-58.96v-23.98h56.96l-11.99-24.98h-44.97v-23.98h31.98l-63-91.98h58.96L513 567.48z" fill="#FFFFFF" p-id="36564"></path><path d="M510.78 348.64c-124.55 0-210.17-33.4-215.48-35.52-14.43-5.77-21.42-22.08-15.67-36.51 5.79-14.39 22.12-21.46 36.51-15.73 1.76 0.71 181.31 70.06 393.2-0.55 14.87-5.05 30.65 3.08 35.6 17.78 4.91 14.74-3.08 30.67-17.8 35.58-78.6 26.19-152.61 34.95-216.36 34.95z" fill="#B2150A" p-id="36565"></path></svg>