<?xml version="1.0" standalone="no"?><!DOCTYPE svg PUBLIC "-//W3C//DTD SVG 1.1//EN" "http://www.w3.org/Graphics/SVG/1.1/DTD/svg11.dtd"><svg t="1760600158954" class="icon" viewBox="0 0 1024 1024" version="1.1" xmlns="http://www.w3.org/2000/svg" p-id="28763" xmlns:xlink="http://www.w3.org/1999/xlink" width="200" height="200"><path d="M522.297 114.176c86.187 0 172.373 0.853 258.56-0.398 41.13-0.57 73.443 28.501 72.647 71.054-0.91 51.769-0.17 103.538-0.228 155.477 0 42.951-27.477 69.746-71.338 70.03-12.686 0-27.193-4.21-37.433 1.65-10.297 5.803-15.645 18.375-23.097 28.103-8.192 10.582-16.156 21.39-24.52 31.858-13.652 17.067-34.417 16.896-47.9-0.398-14.222-18.432-28.444-36.978-42.552-55.58a13.084 13.084 0 0 0-11.776-5.803c-48.811 0.227-97.679 0.227-146.546 0a13.028 13.028 0 0 0-11.72 5.86c-13.14 17.464-26.51 34.759-39.822 52.11-16.782 21.959-36.636 22.073-53.304 0.341-12.971-16.896-26.17-33.621-38.742-50.745-3.982-5.404-8.078-8.078-15.246-7.623a361.188 361.188 0 0 1-32.882 0c-37.774-0.74-66.218-27.193-66.787-63.83a6390.5 6390.5 0 0 1 0-168.39c0.625-37.718 29.81-63.66 69.575-63.716 87.666-0.057 175.388-0.114 263.11 0z m-0.91 796.046H375.75c-23.893 0-34.588-10.354-34.36-33.906 0.227-18.432-1.821-37.091 2.9-55.239 11.89-45.909 51.883-76.8 101.832-77.369a5675.52 5675.52 0 0 1 150.073 0c60.7 0.797 104.334 44.43 105.016 103.823 0.114 10.695 0.114 21.39 0 32.085-0.17 19.342-11.377 30.436-31.516 30.55-40.562 0.17-81.124 0-121.685 0h-26.624z m-0.114-180.565c-57.515-0.114-104.107-45.739-104.05-101.888 0.057-56.206 46.649-101.717 104.22-101.717 57.458 0 104.107 45.51 104.164 101.66-0.057 56.32-46.763 101.831-104.334 101.945z" fill="#1296db" opacity=".8" p-id="28764"></path><path d="M383.716 720.327a144.84 144.84 0 0 0-55.58 46.763 140.117 140.117 0 0 0-25.089 83.399c0 7.395 3.413 17.522-1.422 21.447-4.779 3.925-14.62 1.365-22.187 1.365H148.025c-23.097 0-34.247-10.809-34.133-33.45 0.34-19.57-1.707-39.254 3.697-58.596a102.855 102.855 0 0 1 95.175-74.24 3699.03 3699.03 0 0 1 124.303 0c16.1 0 31.289 4.722 46.649 13.312z m265.102-4.38c13.255-6.144 27.762-9.273 42.382-9.33h110.99c60.871 0 105.53 42.098 107.748 101.433 0.455 11.833 0.284 23.722 0 35.555-0.398 17.693-11.89 29.469-30.151 29.583-45 0.34-89.999 0-134.998 0.227-5.404 0-5.518-2.275-5.461-6.144 0.341-20.252 0.455-40.562-5.689-60.188-13.369-42.951-41.643-72.932-84.764-91.136z m99.328-28.047a86.13 86.13 0 0 1-60.132-24.746 82.204 82.204 0 0 1-24.519-59.05c0.228-45.683 39.424-83.343 85.902-82.717 47.104 0.341 84.935 37.888 84.594 83.854-0.341 46.023-38.798 83.058-85.902 82.66z m-473.6 0c-46.99-0.113-85.106-37.432-85.05-83.399 0.228-45.795 39.027-83.513 85.505-83.171 46.535 0.91 83.74 38.115 83.627 83.513-0.171 45.51-37.604 82.489-84.196 83.057h0.114z" fill="#1296db" p-id="28765"></path></svg>