<?xml version="1.0" standalone="no"?><!DOCTYPE svg PUBLIC "-//W3C//DTD SVG 1.1//EN" "http://www.w3.org/Graphics/SVG/1.1/DTD/svg11.dtd"><svg t="1760600350875" class="icon" viewBox="0 0 1024 1024" version="1.1" xmlns="http://www.w3.org/2000/svg" p-id="50022" xmlns:xlink="http://www.w3.org/1999/xlink" width="200" height="200"><path d="M810.244 170.464H256.326c-11.75 0-21.312-9.562-21.312-21.31 0-11.75 9.562-21.296 21.312-21.296v-0.018h234.368c35.282 0 63.904-28.608 63.904-63.904V21.33c0-11.766-9.532-21.312-21.312-21.312-11.748 0-21.312 9.546-21.312 21.312v42.608c0 11.75-9.562 21.296-21.28 21.296H256.326v0.016c-35.312 0-63.904 28.608-63.904 63.904 0 35.294 28.592 63.918 63.904 63.918h553.918c11.75 0 21.312 9.546 21.312 21.296s-9.562 21.312-21.312 21.312H575.908c-35.31 0-63.934 28.608-63.934 63.904v94.542h42.624v-94.542c0-11.734 9.56-21.296 21.31-21.296h234.336c35.312 0 63.938-28.624 63.938-63.92 0-35.294-28.626-63.904-63.938-63.904z" fill="#434A54" p-id="50023"></path><path d="M565.252 383.504h-63.934c-11.75 0-21.28 9.53-21.28 21.296v149.136c0 11.75 9.532 21.308 21.28 21.308h63.934c11.75 0 21.312-9.558 21.312-21.308V404.8c0-11.764-9.562-21.296-21.312-21.296z" fill="#656D78" p-id="50024"></path><path d="M1023.3 873.426c-0.062-12.218-3.468-43.624-15.966-84.058-15.312-49.718-38.532-95.558-68.968-136.308-40.654-54.344-92.964-97.496-155.526-128.184-75.842-37.234-166.962-56.124-270.834-56.154-103.746 0.032-194.93 19.358-270.992 57.482-62.404 31.266-114.714 75.106-155.496 130.292C15.084 751.804 0.678 851.926 0.678 873.52c0 18.532 0 53.032 12.032 84.778 16.312 42.968 48.966 65.688 94.464 65.688h0.032c90.466-0.032 157.652-24.124 222.618-47.438 58.56-21 113.872-40.876 182.37-40.876 68.466 0 123.684 19.876 182.118 40.876 64.876 23.312 131.964 47.438 222.462 47.438 29.966 0 54.248-9.124 72.186-27.188 34.748-34.876 34.498-92.466 34.34-123.372z" fill="#434A54" p-id="50025"></path><path d="M405.478 745.68c0 58.844-47.718 106.528-106.528 106.528-58.842 0-106.528-47.684-106.528-106.528 0-58.808 47.686-106.528 106.528-106.528 58.81 0 106.528 47.72 106.528 106.528z" fill="#656D78" p-id="50026"></path><path d="M298.95 809.618c-11.78 0-21.312-9.562-21.312-21.312v-85.25c0-11.746 9.532-21.278 21.312-21.278 11.75 0 21.28 9.532 21.28 21.278v85.25c0 11.748-9.53 21.312-21.28 21.312z" fill="#434A54" p-id="50027"></path><path d="M341.542 766.992h-85.216c-11.75 0-21.312-9.562-21.312-21.312s9.562-21.312 21.312-21.312h85.216c11.78 0 21.312 9.562 21.312 21.312s-9.532 21.312-21.312 21.312z" fill="#434A54" p-id="50028"></path><path d="M676.188 687.996c8.31 8.312 8.31 21.808 0 30.122-8.312 8.344-21.812 8.344-30.124 0-8.312-8.312-8.312-21.808 0-30.122 8.312-8.312 21.812-8.312 30.124 0zM761.404 666.684a21.346 21.346 0 0 1 0 30.152c-8.312 8.312-21.812 8.312-30.124 0a21.346 21.346 0 0 1 0-30.152c8.312-8.312 21.812-8.312 30.124 0zM846.62 645.402c8.312 8.312 8.312 21.812 0 30.124-8.312 8.344-21.812 8.344-30.124 0-8.312-8.312-8.312-21.812 0-30.124 8.31-8.344 21.81-8.344 30.124 0z" fill="#AAB2BC" p-id="50029"></path><path d="M725.03 809.618c0 23.496-19.062 42.59-42.592 42.59-23.562 0-42.624-19.094-42.624-42.59 0-23.562 19.06-42.624 42.624-42.624 23.528-0.002 42.592 19.06 42.592 42.624zM810.244 788.304c0 23.496-19.06 42.59-42.59 42.59-23.532 0-42.624-19.094-42.624-42.59 0-23.562 19.094-42.624 42.624-42.624s42.59 19.062 42.59 42.624zM895.46 766.992c0 23.532-19.06 42.624-42.592 42.624s-42.624-19.094-42.624-42.624 19.094-42.624 42.624-42.624 42.592 19.092 42.592 42.624z" fill="#656D78" p-id="50030"></path><path d="M554.598 766.992h-42.624c-11.75 0-21.28-9.562-21.28-21.312s9.532-21.312 21.28-21.312h42.624c11.78 0 21.31 9.562 21.31 21.312s-9.532 21.312-21.31 21.312z" fill="#5D9CEC" p-id="50031"></path><path d="M597.19 596.558h-127.808c-11.782 0-21.312-9.562-21.312-21.312 0-11.746 9.532-21.308 21.312-21.308h127.808c11.782 0 21.312 9.562 21.312 21.308 0 11.75-9.532 21.312-21.312 21.312z" opacity=".2" p-id="50032"></path></svg>