<?xml version="1.0" standalone="no"?><!DOCTYPE svg PUBLIC "-//W3C//DTD SVG 1.1//EN" "http://www.w3.org/Graphics/SVG/1.1/DTD/svg11.dtd"><svg t="1760600016167" class="icon" viewBox="0 0 1024 1024" version="1.1" xmlns="http://www.w3.org/2000/svg" p-id="10455" xmlns:xlink="http://www.w3.org/1999/xlink" width="200" height="200"><path d="M401.39 822.784h221.22v101.166h-221.22z" fill="#7A6D79" p-id="10456"></path><path d="M401.39 835.008h221.22v33.126h-221.22z" fill="#685E68" p-id="10457"></path><path d="M469.108 138.958h85.784v135.466h-85.784z" fill="#7A6D79" p-id="10458"></path><path d="M508.648 138.958h46.244v135.466h-46.244z" fill="#685E68" p-id="10459"></path><path d="M851.008 1024H172.992v-52.87c0-34.698 28.128-62.824 62.824-62.824h552.366c34.698 0 62.824 28.128 62.824 62.824V1024z" fill="#433F43" p-id="10460"></path><path d="M190.922 693.85H138.138c-26.2 0-47.438-21.238-47.438-47.438v-119.56c0-26.2 21.238-47.438 47.438-47.438H190.92v214.436zM885.862 693.85H833.08V479.416h52.782c26.2 0 47.438 21.238 47.438 47.438v119.56c0 26.198-21.24 47.436-47.438 47.436z" fill="#7A6D79" p-id="10461"></path><path d="M827.298 454.796c-20.866-49.458-51.004-88.098-84.476-118.238-130.62-117.618-331.024-117.618-461.644 0-33.472 30.14-63.61 68.78-84.476 118.238 0 0-90.226 202.458 52.402 323.288 44.178 37.426 100.802 56.924 158.702 56.924h208.386c57.9 0 114.524-19.498 158.702-56.924 142.63-120.828 52.404-323.288 52.404-323.288z" fill="#E2DEE2" p-id="10462"></path><path d="M774.898 778.086c-44.176 37.424-100.808 56.92-158.714 56.92H407.816c-57.558 0-113.858-19.268-157.912-56.24 32.752 15.172 68.818 22.952 105.418 22.952h208.386c57.908 0 114.518-19.494 158.694-56.918 142.638-120.836 52.41-323.296 52.41-323.296-20.874-49.446-51.01-88.106-84.482-118.244a347.13 347.13 0 0 0-20.256-16.88 342.366 342.366 0 0 1 72.75 50.188c33.472 30.138 63.61 68.776 84.462 118.222 0.002 0 90.228 202.458-52.388 323.296z" fill="#CBC4CC" p-id="10463"></path><path d="M705.9 656.932h-387.8c-18.346 0-33.22-14.874-33.22-33.22v-111.076c0-18.346 14.874-33.22 33.22-33.22h387.8c18.346 0 33.22 14.874 33.22 33.22v111.076c0 18.348-14.874 33.22-33.22 33.22z" fill="#C0D6F2" p-id="10464"></path><path d="M304.088 221.692a15 15 0 0 1-14.096-9.86l-37.74-103.456-43.118 58.792a14.996 14.996 0 0 1-20.966 3.224 15 15 0 0 1-3.224-20.966l59.698-81.398a15.032 15.032 0 0 1 14.21-5.98 15.004 15.004 0 0 1 11.976 9.71l34.812 95.428 28.028-61.356a15 15 0 0 1 26.876-0.836l24.704 46.234a15 15 0 0 1-6.162 20.298 14.996 14.996 0 0 1-20.298-6.16l-10.422-19.504-30.634 67.064a15.012 15.012 0 0 1-13.644 8.766zM719.912 221.692a15 15 0 0 1-13.64-8.768L675.636 145.86l-10.422 19.504a15 15 0 0 1-26.46-14.138l24.704-46.234a15.086 15.086 0 0 1 13.698-7.924 15.002 15.002 0 0 1 13.178 8.76l28.028 61.356 34.812-95.428a15.004 15.004 0 0 1 11.976-9.71 15.018 15.018 0 0 1 14.21 5.98l59.698 81.398a15 15 0 0 1-24.19 17.742l-43.118-58.792-37.74 103.456a15 15 0 0 1-14.098 9.862z" fill="#7A6D79" p-id="10465"></path><path d="M422.394 969.874m-21.556 0a21.556 21.556 0 1 0 43.112 0 21.556 21.556 0 1 0-43.112 0Z" fill="#7A6D79" p-id="10466"></path><path d="M512 969.874m-21.556 0a21.556 21.556 0 1 0 43.112 0 21.556 21.556 0 1 0-43.112 0Z" fill="#7A6D79" p-id="10467"></path><path d="M601.606 969.874m-21.556 0a21.556 21.556 0 1 0 43.112 0 21.556 21.556 0 1 0-43.112 0Z" fill="#7A6D79" p-id="10468"></path><path d="M403.672 602.132a15 15 0 0 1-15-15v-37.918c0-8.284 6.714-15 15-15s15 6.716 15 15v37.918a15 15 0 0 1-15 15zM620.328 602.132a15 15 0 0 1-15-15v-37.918c0-8.284 6.714-15 15-15s15 6.716 15 15v37.918a15 15 0 0 1-15 15z" fill="#433F43" p-id="10469"></path><path d="M512 90.882m-90.882 0a90.882 90.882 0 1 0 181.764 0 90.882 90.882 0 1 0-181.764 0Z" fill="#E94444" p-id="10470"></path></svg>